<svg xmlns="http://www.w3.org/2000/svg" width="650.84" height="664.39"><path fill="#5fbfd5" opacity=".5" d="M47.31 432.09C-9.2 330.19-13.58 217.13 26.26 141.78 65.59 66.99 149.25 29.87 220.72 12.19 292.19-4.99 352.03-3.33 431.25 13.3s178.4 48.75 197.79 106.37c18.84 57.06-42.11 140.72-106.37 243.77-64.25 103.55-131.86 226.55-220.51 243.75-88.64 16.59-197.74-73.71-254.85-175.1z"/><path fill="#5fbfd5" opacity=".5" d="M429.06 44.19c108.54 31.12 189 105.5 213.29 184.44 24.29 78.18-7.59 160.91-44.41 222-37.19 60.72-79.31 100.57-145 143.45s-155.52 88.83-208.32 62.64c-52-26.18-67.55-125.24-94.12-239.85-26.94-115-64.89-245.54-15.93-318 49.33-72.13 185.95-85.03 294.49-54.68z"/></svg>